<svg id="Layer_1" data-name="Layer 1" xmlns="http://www.w3.org/2000/svg" viewBox="0 0 81.4 139.87"><defs><style>.cls-1{fill:none;stroke:#000;stroke-width:3px;}.cls-2{fill:#f2756a;}.cls-3{fill:#b73830;}.cls-4{fill:#5c1410;}</style></defs><title>map_marker</title><path class="cls-1" d="M500.54,511.13" transform="translate(-459.84 -430.3)"/><path class="cls-2" d="M500.74,568.67c1-19.15,11.54-50.26,26.83-69.83,8.33-10.67,12.17-21.06,12.17-27.37a39.44,39.44,0,0,0-39.2-39.67h0a39.44,39.44,0,0,0-39.2,39.67c0,6.31,3.83,16.7,12.17,27.37,15.29,19.58,25.85,50.68,26.83,69.83Z" transform="translate(-459.84 -430.3)"/><path class="cls-3" d="M502.17,570.17h-3.25l-.07-1.42c-.95-18.44-11.13-49.29-26.52-69-9.21-11.78-12.49-22.34-12.49-28.29,0-22.7,18.26-41.17,40.7-41.17s40.7,18.47,40.7,41.17c0,6-3.28,16.51-12.49,28.29-15.39,19.7-25.57,50.55-26.52,69l-.07,1.42ZM500.54,433.3c-20.79,0-37.7,17.12-37.7,38.17,0,5.2,3.1,15.25,11.85,26.45,13.07,16.73,22.48,41.35,25.85,60,3.38-18.7,12.78-43.31,25.85-60,8.75-11.19,11.85-21.24,11.85-26.45,0-21-16.91-38.17-37.7-38.17Z" transform="translate(-459.84 -430.3)"/><circle class="cls-4" cx="40.5" cy="39.7" r="14.96"/></svg>